
<svg xmlns="http://www.w3.org/2000/svg" viewBox="0 0 512 512" fill="none">
  <!-- Folder base -->
  <path d="M472 120H260L212 72H40a24 24 0 00-24 24v320a24 24 0 0024 24h432a24 24 0 0024-24V144a24 24 0 00-24-24z" fill="#2563EB"/>
  <path d="M472 120H40a24 24 0 00-24 24v32h480v-32a24 24 0 00-24-24z" fill="#1E40AF"/>
  
  <!-- Simple document icon instead of text -->
  <rect x="170" y="200" width="172" height="220" rx="12" fill="white"/>
  <path d="M190 220h132" stroke="#2563EB" stroke-width="8" stroke-linecap="round"/>
  <path d="M190 250h132" stroke="#2563EB" stroke-width="8" stroke-linecap="round"/>
  <path d="M190 280h132" stroke="#2563EB" stroke-width="8" stroke-linecap="round"/>
  <path d="M190 310h80" stroke="#2563EB" stroke-width="8" stroke-linecap="round"/>
  
  <!-- Corner fold effect on document -->
  <path d="M322 220l20-20v20h-20z" fill="#2563EB"/>
</svg>
