
<svg xmlns="http://www.w3.org/2000/svg" viewBox="0 0 100 80" fill="none">
  <path d="M90 20H50L40 10H10C4.5 10 0 14.5 0 20v50c0 5.5 4.5 10 10 10h80c5.5 0 10-4.5 10-10V30c0-5.5-4.5-10-10-10z" fill="#FFD43B"/>
  <rect x="25" y="38" width="50" height="25" rx="2" fill="#2563EB"/>
  <path d="M42 45h3.5c1.4 0 2.5 0.3 3.2 1 0.7 0.6 1 1.5 1 2.6 0 1.1-0.3 2-1 2.6-0.7 0.6-1.8 1-3.2 1H42V45zM45.5 50.8c1.8 0 2.7-0.7 2.7-2.2 0-1.5-0.9-2.2-2.7-2.2H44v4.4h1.5z" fill="white"/>
  <path d="M50.5 45H56v1.4h-3.5v1.5H56v1.4h-3.5v1.8H56v1.4h-5.5V45z" fill="white"/>
  <path d="M57 45h2v7h-2V45z" fill="white"/>
</svg>
